# xmcd
#
# Track frame offsets:
#	150
#	3195
#	14672
#	21462
#	31815
#	41425
#	52382
#	60920
#	69912
#	76277
#	90227
#	106655
#	115092
#	123247
#	127377
#
# Disc length: 1869 seconds
#
# Revision: 2
# Processed by: cddbd v1.5.2PL0 Copyright (c) Steve Scherf et al.
# Submitted via: EZCDAudioConverter 2.1.7.1
#
DISCID=b8074b0f
DTITLE=Beach Boys - Friends
DYEAR=1968
DGENRE=
TTITLE0=Meant For You
TTITLE1=Friends
TTITLE2=Wake The World
TTITLE3=Be Here In The Mornin'
TTITLE4=When A Man Needs A Woman
TTITLE5=Passing By
TTITLE6=Anna Lee, The Healer
TTITLE7=Little Bird
TTITLE8=Be Still
TTITLE9=Busy Doin' Nothin'
TTITLE10=Diamond Head
TTITLE11=Transcendental Meditation
TTITLE12=We're Together Again
TTITLE13=Walk On By
TTITLE14=Old Folks At Home/Ol' Man River
EXTD=
EXTT0=
EXTT1=
EXTT2=
EXTT3=
EXTT4=
EXTT5=
EXTT6=
EXTT7=
EXTT8=
EXTT9=
EXTT10=
EXTT11=
EXTT12=
EXTT13=
EXTT14=
PLAYORDER=
